<mxfile host="app.diagrams.net" modified="2023-10-26T02:51:32.474Z" agent="Mozilla/5.0 (Macintosh; Intel Mac OS X 10_15_7) AppleWebKit/537.36 (KHTML, like Gecko) Chrome/118.0.0.0 Safari/537.36" version="22.0.8" etag="RSUMOcQKtZNxUelxWMdi" type="github">
  <diagram name="第 1 页" id="zU08NKMT4hQ5_r_lFpIC">
    <mxGraphModel>
      <root>
        <mxCell id="0" />
        <mxCell id="1" parent="0" />
      </root>
    </mxGraphModel>
  </diagram>
</mxfile>
